<?xml version="1.0" encoding="UTF-8" standalone="no"?>
<svg
   xmlns:dc="http://purl.org/dc/elements/1.1/"
   xmlns:cc="http://creativecommons.org/ns#"
   xmlns:rdf="http://www.w3.org/1999/02/22-rdf-syntax-ns#"
   xmlns:svg="http://www.w3.org/2000/svg"
   xmlns="http://www.w3.org/2000/svg"
   xmlns:sodipodi="http://sodipodi.sourceforge.net/DTD/sodipodi-0.dtd"
   xmlns:inkscape="http://www.inkscape.org/namespaces/inkscape"
   width="3240"
   height="19200"
   viewBox="0 0 857.24998 5080.0001"
   version="1.1"
   id="svg8"
   inkscape:version="1.0.1 (3bc2e813f5, 2020-09-07)"
   sodipodi:docname="baselevel.svg"
   inkscape:export-filename="C:\Users\ao-du\Documents\Games\bubbledash\sprites\test_level.png"
   inkscape:export-xdpi="96"
   inkscape:export-ydpi="96">
  <defs
     id="defs2" />
  <sodipodi:namedview
     id="base"
     pagecolor="#ffffff"
     bordercolor="#666666"
     borderopacity="1.0"
     inkscape:pageopacity="0.0"
     inkscape:pageshadow="2"
     inkscape:zoom="0.028284271"
     inkscape:cx="-71.065049"
     inkscape:cy="10194.361"
     inkscape:document-units="mm"
     inkscape:current-layer="layer1"
     inkscape:document-rotation="0"
     showgrid="false"
     units="px"
     inkscape:window-width="1920"
     inkscape:window-height="1017"
     inkscape:window-x="-8"
     inkscape:window-y="-8"
     inkscape:window-maximized="1" />
  <metadata
     id="metadata5">
    <rdf:RDF>
      <cc:Work
         rdf:about="">
        <dc:format>image/svg+xml</dc:format>
        <dc:type
           rdf:resource="http://purl.org/dc/dcmitype/StillImage" />
        <dc:title></dc:title>
      </cc:Work>
    </rdf:RDF>
  </metadata>
  <g
     inkscape:label="Layer 1"
     inkscape:groupmode="layer"
     id="layer1">
    <rect
       style="fill:#b380ff;stroke:#003380;stroke-width:0;stroke-miterlimit:4;stroke-dasharray:none"
       id="rect837"
       width="1124.8572"
       height="5297.7144"
       x="-138.05246"
       y="-64.349014" />
    <path
       style="fill:#5a2ca0;stroke:#000000;stroke-width:0.264583px;stroke-linecap:butt;stroke-linejoin:miter;stroke-opacity:1"
       d="m 115.46044,5153.7582 c 0,0 350.6576,-594.4074 192.434,-1364.1435 -158.2235,-769.7365 171.0526,-487.4999 149.671,-876.6443 -21.3816,-389.1443 -380.591804,-1171.7095 -316.4471,-1778.9457 64.1446,-607.23648 265.1313,-658.55223 149.6709,-855.26258 -115.4604,-196.710373 192.4341,-312.170813 312.1708,-175.32881 119.7368,136.84199 136.842,560.19691 81.2499,671.38104 -55.592,111.18411 -299.3418,846.70985 -243.7498,1047.69655 55.5921,200.9866 389.1445,1039.1439 333.5524,1257.2357 -55.5921,218.092 -277.9603,248.0262 -192.4341,538.8155 85.5263,290.7892 222.3683,1167.4332 200.9867,1334.2093 -21.3815,166.7764 -667.1047,200.9868 -667.1047,200.9868 z"
       id="path835" />
  </g>
</svg>
